<svg data-name="Layer 1" viewBox="0 0 64 64" xmlns="http://www.w3.org/2000/svg"><path d="m31.957 31.5-11.91 6.2-5.826 3.032-3.477 1.808c-1.329.692-.762 2.46.789 2.46h40.934c1.553 0 2.118-1.771.786-2.461ZM32 31v-.968a2.108 2.108 0 0 1 .891-1.734l1.944-1.35a1.994 1.994 0 0 0 .3-.261l.274-.285A2.13 2.13 0 0 0 36 24.929v-3.846h0A2.043 2.043 0 0 0 34 19h-6a2.043 2.043 0 0 0-2 2.083V25" fill="none" stroke="#FFAF2" stroke-linecap="round" stroke-linejoin="round" stroke-width="2px" class="stroke-000000"></path></svg>